<?xml version="1.0" encoding="UTF-8" standalone="no"?>
<svg
   xmlns:dc="http://purl.org/dc/elements/1.1/"
   xmlns:cc="http://creativecommons.org/ns#"
   xmlns:rdf="http://www.w3.org/1999/02/22-rdf-syntax-ns#"
   xmlns:svg="http://www.w3.org/2000/svg"
   xmlns="http://www.w3.org/2000/svg"
   viewBox="0 0 620 620"
   height="620"
   width="620"
   xml:space="preserve"
   id="svg2"
   version="1.1"><metadata
     id="metadata8"><rdf:RDF><cc:Work
         rdf:about=""><dc:format>image/svg+xml</dc:format><dc:type
           rdf:resource="http://purl.org/dc/dcmitype/StillImage" /></cc:Work></rdf:RDF></metadata><defs
     id="defs6" /><g
     transform="matrix(1.3333333,0,0,-1.3333333,0,620)"
     id="g10"><g
       transform="scale(0.1)"
       id="g12"><path
         id="path14"
         style="fill:#00adef;fill-opacity:1;fill-rule:evenodd;stroke:none"
         d="m 3461.66,2103.38 c 0,-264.77 -95.28,-489.37 -285.86,-674.16 -190.24,-184.79 -418.25,-277.02 -683.35,-277.02 -265.11,0 -492.77,92.23 -683.01,277.02 -189.9,184.79 -285.19,409.39 -285.19,674.16 0,264.42 95.64,489.71 286.21,675.86 189.55,184.11 416.88,276.34 681.99,276.34 265.1,0 492.43,-92.23 681.99,-276.34 191.26,-186.15 287.22,-411.44 287.22,-675.86 z m -65,-7.15 v 35.06 c -172.2,18.71 -258.3,27.9 -258.98,27.9 -4.08,0 -47.98,-4.42 -131.7,-12.93 l 49.69,-95.63 -127.62,-45.94 -72.82,164.37 -22.81,-13.95 c 41.18,-75.55 63.98,-148.72 67.72,-219.17 -42.53,-50.71 -85.07,-102.09 -127.61,-154.5 0.68,-112.64 -11.23,-214.4 -35.74,-306.28 l -127.61,-109.58 -91.89,59.89 c -7.83,128.3 -29.27,257.28 -63.64,387.62 l -77.94,109.92 -173.21,40.84 -44.92,104.47 29.95,151.79 c 50.36,14.63 122.51,41.52 216.1,80.65 22.12,-15.31 50.02,-25.53 83.71,-30.97 29.27,-4.76 58.54,-8.85 87.8,-12.93 0.68,0 42.54,-11.57 125.58,-35.06 49.35,-13.26 92.23,-20.75 128.64,-22.79 l 40.84,99.71 h -49.69 l -28.93,153.48 -124.55,5.1 7.83,-50.02 62.96,-79.64 -50.03,24.85 11.91,-36.76 -87.46,-21.1 33.69,25.19 -24.84,70.79 -58.88,41.85 -45.94,-41.85 -66.7,11.91 -40.84,-74.88 -75.89,37.78 58.88,70.78 87.8,25.19 36.75,53.77 129.66,58.87 28.93,32.67 28.93,120.82 -78.62,-39.82 35.74,-20.08 -55.82,-51.73 -19.74,55.81 -27.9,-43.9 -84.06,71.81 179.69,155.52 h 147.35 l 16,86.78 c -99.72,37.1 -202.83,55.81 -310.03,55.81 -119.11,0 -217.46,-16.33 -295.05,-49 18.04,-13.95 26.88,-29.27 26.88,-45.95 0,-7.82 -7.82,-13.95 -23.82,-17.69 -11.57,-2.04 -22.8,-4.08 -34.03,-6.12 -31.31,-9.87 -62.96,-27.23 -95.29,-52.41 -31.99,-24.85 -61.93,-69.43 -89.16,-134.09 -21.78,-50.37 -45.6,-75.55 -70.79,-75.55 -15.99,0 -29.94,13.27 -42.19,40.16 -12.6,26.89 -19.06,40.5 -19.74,40.5 -24.51,0 -46.28,-6.47 -65.68,-19.06 -53.78,-35.73 -104.48,-114.35 -151.44,-235.16 -48.66,-124.21 -72.83,-242.64 -72.83,-354.95 0,-249.79 88.82,-460.79 266.12,-632.64 177.65,-171.86 391.71,-257.62 642.18,-257.62 250.47,0 465.89,87.12 645.57,261.7 179.69,174.24 269.53,386.6 269.53,636.39 z m -868.14,489.72 -44.92,-45.95 -41.86,4.09 37.78,45.94 -24.85,8.85 -26.88,48.66 14.98,38.12 z m -195.68,136.46 -32.67,-24.84 -54.79,-8.17 20.76,71.13 h 54.79 z m 79.98,-140.55 -28.93,-33.01 -12.94,37.1 20.77,33.69 z m 166.41,-250.13 -4.09,-40.84 -37.77,40.84 z" /><path
         id="path16"
         style="fill:none;stroke:#231f20;stroke-width:130.93800354;stroke-linecap:butt;stroke-linejoin:miter;stroke-miterlimit:2.61310005;stroke-dasharray:none;stroke-opacity:1"
         d="M 2667.09,1726.99 C 1114.46,1490.32 875.191,2377.91 1522.45,2917.44 l 1,628.77 h 449.19 v -637.24 h 405.5 l 14.49,637.24 h 477.73 v -637.24 h 419.99" /><path
         id="path18"
         style="fill:#231f20;fill-opacity:1;fill-rule:evenodd;stroke:none"
         d="m 3321.07,1747.08 -972.36,415.81 291.94,-443.19 -229.73,-436.88 910.15,464.26" /><path
         id="path20"
         style="fill:none;stroke:#231f20;stroke-width:2.16000009;stroke-linecap:butt;stroke-linejoin:miter;stroke-miterlimit:2.61310005;stroke-dasharray:none;stroke-opacity:1"
         d="m 3321.07,1747.08 -972.36,415.81 291.94,-443.19 -229.73,-436.88 z" /><path
         id="path22"
         style="fill:none;stroke:#231f20;stroke-width:80.5759964;stroke-linecap:butt;stroke-linejoin:miter;stroke-miterlimit:2.61310005;stroke-dasharray:none;stroke-opacity:1"
         d="m 2324.11,4606.9 c 1256.93,0 2282.08,-1025.15 2282.08,-2282.06 C 4606.19,1067.91 3581.04,42.7656 2324.11,42.7656 1067.2,42.7656 42.0508,1067.91 42.0508,2324.84 42.0508,3581.75 1067.2,4606.9 2324.11,4606.9 Z" /><path
         id="path24"
         style="fill:#231f20;fill-opacity:1;fill-rule:evenodd;stroke:none"
         d="m 358.59,2445.38 -21.617,-42.92 c -6.59,6.88 -13.75,12.08 -21.532,15.71 l 31.289,33.98 -46.906,-0.29 c 0.227,2.25 0.403,3.98 0.617,5.21 0.215,1.17 0.844,3.36 1.797,6.37 -0.058,2.3 -0.121,4.43 -0.285,6.44 -0.168,2.07 -0.109,4.76 0.18,8.12 l 46.035,-9.46 -25.563,39 c 4.637,1.62 9.11,3.64 13.477,6.05 4.367,2.39 7.84,4.29 10.469,5.65 l 14.597,-44.43 22.161,41.23 c 5.043,-3.86 8.566,-6.36 10.468,-7.66 4.188,-3.07 8.172,-5.53 11.801,-7.45 l -29.988,-34.79 45.941,1.4 -1.57,-14.38 -1.07,-11.7 -44.696,8.95 25.008,-38.21 c -0.953,-0.39 -5.308,-2.36 -13.039,-5.93 -4.652,-2.07 -8.445,-4.43 -11.422,-7.11 l -16.152,46.22" /><path
         id="path26"
         style="fill:#231f20;fill-opacity:1;fill-rule:evenodd;stroke:none"
         d="m 321.023,2687.55 7.719,24.39 3.688,25.01 102.398,-23.66 c -10.633,14.66 -24.23,32.84 -40.789,54.55 -4.426,5.82 -18.402,23.78 -42.016,53.82 l 5.817,16.25 2.344,19.07 2.57,-0.62 c 15.391,-23.06 26.644,-40.01 33.746,-50.86 12.648,-18.96 25.184,-37.16 37.711,-54.5 l 146.488,58.48 5.258,-1.18 c -3.402,-8.9 -5.984,-17.13 -7.769,-24.73 -1.629,-7 -2.797,-15.22 -3.641,-24.69 l -121.422,-49.79 104.363,-24.12 -7.457,-23.44 -3.961,-25.97 -225.047,51.99" /><path
         id="path28"
         style="fill:#231f20;fill-opacity:1;fill-rule:evenodd;stroke:none"
         d="m 585.586,2817.85 -186.551,169.72 5.199,11.3 3.52,12.65 251.301,8.23 -11.754,-28.27 -8.004,-26.02 c -23.781,1.52 -48.238,2.09 -73.41,1.74 l -26.86,-73.84 c 8.504,-7.4 15.274,-13.04 20.258,-17.03 16.453,-13.82 28.75,-23.55 36.985,-29.14 l -7.043,-15.34 z m -42.195,149.29 -83.485,-1.72 62.395,-56.29 z" /><path
         id="path30"
         style="fill:#231f20;fill-opacity:1;fill-rule:evenodd;stroke:none"
         d="m 681.766,3064.36 -187.161,87.28 c -4.71,-10.19 -8.898,-20.2 -12.55,-30.1 -3.625,-9.91 -6.766,-19.59 -9.383,-28.99 l -11.481,6.5 -14.714,5.75 73.074,156.73 13.48,-8.5 12.703,-3.75 c -4.304,-7.1 -9.171,-15 -14.605,-23.72 -5.426,-8.73 -10.625,-18.37 -15.504,-28.87 l 187.125,-87.3 -12.254,-23.16 -8.73,-21.87" /><path
         id="path32"
         style="fill:#231f20;fill-opacity:1;fill-rule:evenodd;stroke:none"
         d="m 743.039,3192.87 -202.156,107.49 60.359,113.53 12.086,-9.45 13.11,-4.7 c -5.329,-7.54 -11.149,-16.4 -17.524,-26.41 -6.316,-10.06 -12.144,-20.02 -17.402,-29.93 l -5.199,-9.74 63.453,-33.74 20.472,38.49 c 2.012,3.75 4.305,8.68 6.946,14.78 2.57,6.1 4.414,11.12 5.531,15.1 l 12.98,-9.16 13.11,-4.72 c -2.7,-3.12 -6.282,-8.11 -10.696,-15.04 -4.425,-6.89 -8.23,-13.27 -11.359,-19.19 l -16.559,-31.18 75.313,-40.01 c 6.328,11.88 12.191,23.84 17.629,36.04 5.472,12.2 10.398,23.85 14.762,34.91 l 12.707,-9.78 12.476,-4.37 -60.039,-112.92" /><path
         id="path34"
         style="fill:#231f20;fill-opacity:1;fill-rule:evenodd;stroke:none"
         d="m 826.133,3343.28 -177.949,144.08 71.851,88.75 c 17.746,21.87 39.231,34.75 64.461,38.49 28.375,4.08 55.852,-4.64 82.477,-26.18 28.156,-22.83 44.144,-49.3 47.953,-79.46 4.199,-32.18 -6.543,-64.12 -32.168,-95.73 z m 15.836,51.1 19.461,23.99 c 13.941,17.24 20.601,34.13 19.984,50.81 -1.012,24.68 -17.012,49.58 -47.953,74.69 -25.063,20.27 -48.238,28.99 -69.613,26.08 -17.395,-2.29 -33.227,-12.25 -47.442,-29.82 l -21.601,-26.63 147.164,-119.12" /><path
         id="path36"
         style="fill:#231f20;fill-opacity:1;fill-rule:evenodd;stroke:none"
         d="m 993.484,3538.73 -166.183,160.48 58.754,60.88 c 11.359,11.74 20.472,19.29 27.418,22.77 6.875,3.41 15.394,5.26 25.504,5.42 6.164,0.27 12.433,-1 18.703,-3.87 6.316,-2.78 11.918,-6.53 16.722,-11.18 13.371,-12.91 19.703,-27.64 19.082,-44.08 -0.441,-12.04 -4.257,-24.07 -11.48,-36.05 21.286,-5.03 43.936,-9.96 67.936,-14.76 21.88,-4.37 43.81,-8.73 65.74,-13.1 -8.89,-7.27 -16.38,-14.03 -22.42,-20.31 -6.11,-6.26 -12.77,-14.16 -20.04,-23.67 -20.2,5.2 -35.2,9.19 -45.05,11.87 -32.615,8.44 -57.799,14.77 -75.584,18.85 l -1.617,-1.68 77.781,-75.09 c -8.01,-6.32 -14.34,-11.85 -18.98,-16.73 -4.53,-4.64 -9.957,-11.25 -16.286,-19.75 z m -52.937,121.65 5.605,5.26 c 9.789,10.12 14.832,20.18 15.106,30.15 0.441,11.69 -5.543,23.57 -17.961,35.53 -12.754,12.32 -24.293,17.57 -34.699,15.84 -7.438,-1.23 -15.657,-6.48 -24.66,-15.84 l -8.125,-8.44 64.734,-62.5" /><path
         id="path38"
         style="fill:#231f20;fill-opacity:1;fill-rule:evenodd;stroke:none"
         d="m 1120.68,3671.84 -68.26,242.78 10.41,6.84 9.73,8.84 217.44,-126.18 -24.91,-17.74 -20.59,-17.8 c -19.36,13.81 -39.78,27.26 -61.32,40.28 l -61.89,-48.33 c 3.3,-10.8 5.99,-19.19 8.12,-25.19 6.6,-20.42 11.92,-35.18 15.89,-44.31 l -14.05,-9.24 z m 43.36,148.94 -71.74,42.76 23.06,-80.8 z" /><path
         id="path40"
         style="fill:#231f20;fill-opacity:1;fill-rule:evenodd;stroke:none"
         d="m 1276.56,4066.54 22.71,10.29 20.77,13.82 111.95,-202.05 c -8.66,-3.24 -16.6,-6.94 -23.83,-10.97 -6.27,-3.46 -12.81,-7.83 -19.64,-13.14 l -111.96,202.05" /><path
         id="path42"
         style="fill:#231f20;fill-opacity:1;fill-rule:evenodd;stroke:none"
         d="m 1481.53,3921.96 -93.67,210.39 30.67,13.65 c 13.75,-6.17 35.29,-15.39 64.57,-27.87 20.86,-8.85 41.74,-17.68 62.72,-26.47 20.92,-8.78 43.91,-19.02 68.93,-30.66 l -64.01,143.85 12.47,4.1 12.03,6.81 93.96,-211 -26.08,-10.85 c -22.21,9.69 -44.04,19.3 -65.58,28.82 -21.49,9.57 -43.64,19.18 -66.36,28.93 -28.09,11.98 -51.86,21.88 -71.23,29.65 l 66.35,-149.06 -14.6,-4.31 -10.17,-5.98" /><path
         id="path44"
         style="fill:#231f20;fill-opacity:1;fill-rule:evenodd;stroke:none"
         d="m 1718.14,4024.91 -67.48,220.85 122.32,37.38 2.29,-14.44 6.11,-13.15 c -10.37,-2.01 -21.99,-4.53 -34.93,-7.55 -12.86,-3.02 -26.24,-6.66 -40.16,-10.91 l 20.97,-68.66 34.35,10.53 c 16.68,5.09 29.16,9.95 37.34,14.54 l 2.5,-15 6.17,-13.26 c -11.2,-1.8 -21.67,-3.97 -31.4,-6.6 -9.67,-2.57 -23.79,-6.71 -42.18,-12.36 l 32.61,-106.6 c -10.67,-1.84 -19.13,-3.75 -25.34,-5.64 -5.76,-1.74 -13.49,-4.83 -23.17,-9.13" /><path
         id="path46"
         style="fill:#231f20;fill-opacity:1;fill-rule:evenodd;stroke:none"
         d="m 1846.9,4190.03 c -4.93,30.94 0.5,58.98 16.22,84.17 19.02,30.37 49.8,48.94 92.49,55.71 41.31,6.55 75.15,-0.22 101.45,-20.3 23.73,-18.24 38.27,-44.21 43.59,-78.06 5.87,-36.87 -2.07,-68.26 -23.72,-94.11 -20.76,-24.63 -50.08,-39.9 -88.02,-45.89 -17.18,-2.74 -34.13,-2.57 -50.91,0.45 -22.33,3.92 -40.86,12.41 -55.57,25.51 -18.64,16.51 -30.27,39.18 -34.81,67.88 z m 197.01,39.01 c -4.31,27.42 -14.09,48.72 -29.32,64.01 -15.22,15.22 -33.18,21.21 -53.93,17.95 -25.41,-4.02 -42.86,-17.79 -52.27,-41.23 -8.45,-21.04 -10.07,-47.95 -4.92,-80.63 4.37,-27.64 14.72,-48.46 30.94,-62.39 15.22,-13.04 32.41,-18.02 51.64,-14.95 27.59,4.37 45.83,20.93 54.62,49.75 6.15,20.04 7.21,42.47 3.24,67.49" /><path
         id="path48"
         style="fill:#231f20;fill-opacity:1;fill-rule:evenodd;stroke:none"
         d="m 2154.64,4119.58 -16.18,230.44 84.45,5.92 c 16.29,1.12 28.2,0.67 35.59,-1.4 7.43,-2.06 14.98,-6.44 22.64,-13.03 4.76,-3.92 8.57,-9.07 11.38,-15.39 2.79,-6.27 4.41,-12.82 4.86,-19.48 1.29,-18.57 -3.8,-33.68 -15.33,-45.5 -8.34,-8.66 -19.25,-15.04 -32.62,-19.12 12.48,-17.95 26.02,-36.76 40.61,-56.4 13.39,-17.91 26.76,-35.82 40.07,-53.71 -11.47,0.5 -21.54,0.5 -30.27,-0.12 -8.67,-0.62 -18.91,-2.01 -30.66,-4.19 -11.53,17.39 -20.08,30.37 -25.63,38.94 -18.57,28.14 -33.05,49.69 -43.58,64.63 l -2.3,-0.18 7.56,-107.87 c -10.2,0.66 -18.59,0.72 -25.3,0.27 -6.49,-0.45 -14.94,-1.74 -25.29,-3.81 z m 42.03,125.79 7.71,0.23 c 14.05,0.99 24.57,5.09 31.45,12.31 8.18,8.39 11.64,21.2 10.46,38.39 -1.29,17.67 -6.32,29.32 -15.27,34.96 -6.32,4.03 -16,5.6 -28.92,4.71 l -11.76,-0.84 6.33,-89.76" /><path
         id="path50"
         style="fill:#231f20;fill-opacity:1;fill-rule:evenodd;stroke:none"
         d="m 2345.68,4130.5 c 8.1,32.02 17.06,70.5 26.96,115.6 7.56,34.24 15.57,71.68 24,112.42 l 13.61,-2.97 13.87,1.01 c 7,-18.64 14.16,-37.1 21.38,-55.35 3.63,-9.01 11.02,-27.01 22.16,-54.04 5.53,-13.66 13.04,-31.56 22.5,-53.72 14.94,24.74 29.93,49.46 44.87,74.26 16.28,27.13 31.21,53.09 44.87,77.93 l 14.27,-2.96 13.87,1.01 c 1.57,-44.99 2.59,-70.84 2.97,-77.61 0.9,-19.37 2.35,-45.04 4.36,-77.05 1.34,-22.27 3.25,-48.24 5.65,-77.78 -9.06,1.97 -18.13,3.3 -27.3,3.92 -8.95,0.62 -18.13,0.62 -27.63,-0.06 1.62,22.77 1.72,48.3 0.33,76.55 -1.4,28.25 -2.63,55.17 -3.76,80.84 -3.35,-5.8 -13.03,-22.54 -29.1,-50.12 -12.75,-21.99 -22.49,-38.94 -29.14,-50.81 -10.24,-18.12 -19.25,-34.19 -26.91,-48.24 l -6.72,0.46 -5.71,0.39 c -11.42,28.87 -19.53,49.29 -24.34,61.27 -23.34,57.74 -36.15,89.36 -38.45,94.95 -5.98,-28.08 -11.41,-56.23 -16.16,-84.37 -4.76,-28.15 -7.78,-50.76 -8.96,-67.7 l -15.6,3.13 -15.89,-0.96" /><path
         id="path52"
         style="fill:#231f20;fill-opacity:1;fill-rule:evenodd;stroke:none"
         d="m 2634.23,4100.85 142.07,208.26 11.97,-3.54 13.05,-1.78 43.07,-247.66 -29.59,7.67 -26.87,4.37 c -1.84,23.72 -4.68,47.95 -8.55,72.79 l -76.83,16.34 c -6.16,-9.44 -10.8,-16.9 -14.04,-22.37 -11.42,-18.19 -19.31,-31.68 -23.72,-40.57 l -16.12,4.75 z m 142.01,62.44 -13.37,82.41 -47.06,-69.6 z" /><path
         id="path54"
         style="fill:#231f20;fill-opacity:1;fill-rule:evenodd;stroke:none"
         d="m 2896.71,4152.15 c 12.09,31.56 29.55,54.23 52.31,67.99 18.14,11.03 39.46,16.18 63.86,15.44 18.23,-0.56 35.75,-4.02 52.42,-10.41 15.5,-5.92 29.26,-13.43 41.4,-22.38 8.79,-6.48 15.28,-12.69 19.48,-18.63 -3.97,-5.43 -7.05,-9.68 -9.24,-12.8 -2.12,-3.15 -5.7,-8.69 -10.67,-16.58 l -4.09,1.57 c -3.25,12.03 -8.51,22.28 -15.73,30.67 -7.16,8.39 -15.61,14.43 -25.23,18.12 -21.49,8.29 -42.14,6.6 -61.95,-4.98 -21.04,-12.29 -37.2,-33.28 -48.61,-62.93 -10.25,-26.76 -12.27,-50.71 -6,-71.81 6.72,-22.42 22.33,-38.38 46.78,-47.78 9.41,-3.59 20.03,-5.26 31.84,-5.04 11.86,0.23 22.65,2.53 32.51,6.89 l 3.69,-3.58 -17.56,-24.17 c -9.19,-1.45 -19.76,-1.24 -31.74,0.72 -11.97,1.97 -23.79,5.14 -35.47,9.69 -36.15,13.87 -61.21,35.47 -75.14,64.78 -13.16,27.53 -14.1,55.96 -2.86,85.22 z m 241.44,121.26 -59.09,-40.62 -28.87,11.08 -18.01,70.21 18.51,-7.1 22.78,-44.71 47.46,17.74 17.22,-6.6" /><path
         id="path56"
         style="fill:#231f20;fill-opacity:1;fill-rule:evenodd;stroke:none"
         d="m 3082.82,3958.16 104.57,205.18 29.88,-15.22 c 3.91,-14.55 10.24,-37.09 19.03,-67.71 6.2,-21.76 12.48,-43.59 18.84,-65.4 6.33,-21.76 12.83,-46.11 19.54,-72.85 l 71.5,140.27 11.09,-7.16 12.87,-5.03 -104.86,-205.81 -24.84,13.43 c -6.44,23.34 -12.7,46.39 -18.82,69.1 -6.15,22.72 -12.57,45.94 -19.28,69.72 -8.4,29.39 -15.67,54.05 -21.78,74.04 l -74.08,-145.38 -12.6,8.68 -11.06,4.14" /><path
         id="path58"
         style="fill:#231f20;fill-opacity:1;fill-rule:evenodd;stroke:none"
         d="m 3403.2,3883.18 c 1.24,15.39 2.75,31.62 4.59,48.73 0.84,8.9 2.69,26.02 5.49,51.37 2.4,21.59 4.2,38.6 5.3,51.08 7.96,-6.99 16.01,-13.26 24.19,-18.73 8.72,-5.88 17.28,-10.87 25.62,-14.83 -5.03,-37.11 -9.91,-74.14 -14.66,-111.19 9.84,3.35 22.94,9.79 39.33,19.26 32.8,20.25 52.32,32.17 58.58,35.81 4.77,-4.93 8.56,-8.29 11.37,-10.2 3.13,-2.12 8.45,-4.86 15.89,-8.22 -22.55,-11.03 -44.93,-21.93 -67.15,-32.9 -23.66,-11.8 -44.43,-22.66 -62.39,-32.4 l -58.35,-86.56 -20.6,16.28 -21.43,12.03 z m 107.43,110.57 65.92,17.9 c 8,2.96 15.11,2.35 21.42,-1.9 9.08,-6.11 10.76,-13.49 4.99,-21.98 -2.96,-4.49 -8.67,-6.73 -17.06,-6.72 l -59.93,2.4 -15.34,10.3" /><path
         id="path60"
         style="fill:#231f20;fill-opacity:1;fill-rule:evenodd;stroke:none"
         d="m 3535.59,3805.69 c 23.04,24.73 47.73,39.16 74.02,43.42 20.92,3.47 42.59,0.22 64.91,-9.58 16.73,-7.32 31.61,-17.12 44.71,-29.31 12.15,-11.3 22.15,-23.39 30.04,-36.26 5.72,-9.28 9.41,-17.45 11.08,-24.57 -5.77,-3.51 -10.18,-6.31 -13.36,-8.38 -3.2,-2.13 -8.57,-5.88 -16.13,-11.36 l -3.18,2.96 c 1.45,12.37 0.45,23.84 -3.09,34.31 -3.57,10.51 -9.05,19.23 -16.61,26.29 -16.85,15.72 -36.64,21.95 -59.32,18.58 -24.1,-3.52 -46.99,-16.91 -68.65,-40.17 -19.52,-20.93 -30.38,-42.37 -32.45,-64.29 -2.18,-23.34 6.33,-44 25.46,-61.83 7.34,-6.89 16.57,-12.44 27.64,-16.64 11.08,-4.18 21.98,-6.15 32.73,-5.75 l 2.07,-4.7 -25.34,-15.85 c -9.12,2.08 -18.81,6.28 -29.15,12.55 -10.36,6.32 -20.15,13.71 -29.33,22.27 -28.31,26.4 -43.42,55.78 -45.32,88.19 -1.84,30.48 7.89,57.18 29.27,80.12" /><path
         id="path62"
         style="fill:#231f20;fill-opacity:1;fill-rule:evenodd;stroke:none"
         d="m 3639.28,3557.02 171.17,154.09 c 5.14,-7.72 10.18,-14.32 15.09,-19.8 5.27,-5.82 11.48,-11.7 18.59,-17.62 l -67.87,-61.11 34.91,-41.8 34.08,-34.8 67.87,61.1 15.11,-19.82 18.57,-17.62 -171.16,-154.09 -16.51,20.36 -17.18,17.07 83.32,75.04 -34.02,39.78 c -3.92,4.36 -10.4,11.25 -19.52,20.65 -9.08,9.46 -14.22,14.84 -15.46,16.17 l -83.31,-75.03 -16.51,20.37 -17.17,17.06" /><path
         id="path64"
         style="fill:#231f20;fill-opacity:1;fill-rule:evenodd;stroke:none"
         d="m 3896.49,3309.2 3.35,-5.82 c -7.94,-7.67 -12.91,-16.07 -14.89,-25.24 -2.22,-10.86 -0.05,-21.98 6.55,-33.41 5.48,-9.5 12.82,-15.83 22.05,-19.08 9.23,-3.19 18.29,-2.23 27.19,2.92 8.34,4.81 13.76,11.63 16.29,20.47 2.52,8.79 2.63,22.12 0.39,39.96 -2.35,20.58 -1.51,36.8 2.46,48.74 4.82,14.09 14.93,25.62 30.44,34.58 17.62,10.17 34.92,13.08 51.93,8.67 19.36,-4.86 35.58,-18.64 48.68,-41.3 4.7,-8.12 8.23,-17.18 10.57,-27.03 2.35,-9.9 2.91,-18.51 1.79,-25.91 -6.54,-1.22 -11.74,-2.28 -15.61,-3.19 -8.11,-1.61 -14.32,-2.96 -18.58,-4.14 l -2.51,4.38 c 5.82,6.42 9.45,13.42 10.79,20.93 1.75,9.06 0.12,17.89 -4.93,26.63 -6.25,10.85 -13.41,17.51 -21.42,19.97 -7.99,2.51 -16.79,1 -26.3,-4.48 -6.53,-3.8 -10.91,-9.96 -12.98,-18.42 -1.68,-6.09 -2.07,-14.08 -1.29,-23.93 l 1.68,-27.75 c 1.51,-20.54 -1.51,-37.45 -9.12,-50.64 -5.82,-10.08 -14.66,-18.53 -26.47,-25.36 -19.58,-11.31 -39.94,-12.08 -61.04,-2.28 -18.97,8.67 -34.47,23.38 -46.44,44.14 -5.05,8.73 -8.73,17.68 -11.08,26.92 -2.35,9.23 -3.47,18.18 -3.3,26.8 8.05,1.8 15.04,3.58 21.1,5.42 6.09,1.79 12.98,4.31 20.7,7.45" /><path
         id="path66"
         style="fill:#231f20;fill-opacity:1;fill-rule:evenodd;stroke:none"
         d="m 4141.11,3236.57 9.84,-22.88 13.44,-20.98 -203.9,-108.44 c -3.13,8.72 -6.6,16.78 -10.52,24.05 -3.36,6.32 -7.61,12.92 -12.81,19.82 l 203.95,108.43" /><path
         id="path68"
         style="fill:#231f20;fill-opacity:1;fill-rule:evenodd;stroke:none"
         d="m 3982.37,3031.5 210.78,89.47 50.25,-118.34 -14.99,-3.47 -11.86,-7.23 c -2.58,8.9 -5.77,18.98 -9.58,30.22 -3.79,11.31 -7.87,22.05 -12.25,32.35 l -4.31,10.24 -66.12,-28.09 17.05,-40.17 c 1.62,-3.94 4.04,-8.79 7.11,-14.67 3.08,-5.88 5.81,-10.47 8.21,-13.82 l -15.26,-4.31 -11.92,-7.21 c -0.72,4.02 -2.4,9.95 -4.98,17.74 -2.57,7.77 -5.14,14.76 -7.78,20.97 l -13.77,32.41 -78.5,-33.3 c 5.26,-12.36 10.86,-24.52 16.89,-36.44 6.05,-11.86 12,-23.04 17.86,-33.45 l -15.61,-3.64 -11.25,-6.98 -49.97,117.72" /><path
         id="path70"
         style="fill:#231f20;fill-opacity:1;fill-rule:evenodd;stroke:none"
         d="m 4051.59,2834.31 197.47,60.38 c -3.25,10.69 -6.89,20.93 -10.8,30.71 -3.93,9.8 -8.06,19.08 -12.37,27.83 l 12.81,2.84 14.77,5.59 50.53,-165.34 -15.66,-2.69 -11.92,-5.76 c -1.57,8.24 -3.26,17.35 -5.04,27.47 -1.79,10.08 -4.42,20.71 -7.77,31.85 l -197.47,-60.38 -6.39,25.4 -8.16,22.1" /><path
         id="path72"
         style="fill:#231f20;fill-opacity:1;fill-rule:evenodd;stroke:none"
         d="m 4316.15,2729.29 2.29,-24.84 6.31,-24.13 -227.45,-40.11 c -0.27,9.29 -1.16,17.96 -2.57,26.13 -1.28,7.05 -3.3,14.66 -6.09,22.83 z m 18.68,-3.52 58.65,-35.03 c 7.66,-3.64 12.2,-9.18 13.54,-16.67 1.9,-10.81 -2.24,-17.14 -12.38,-18.92 -5.3,-0.95 -10.85,1.62 -16.72,7.66 l -39.96,45.04 -3.13,17.92" /><path
         id="path74"
         style="fill:#231f20;fill-opacity:1;fill-rule:evenodd;stroke:none"
         d="m 4289.01,2472.68 13.82,46.05 c 7.66,-5.59 15.67,-9.51 23.95,-11.69 l -24.9,-38.95 46.09,8.46 c 0.24,-2.24 0.3,-3.98 0.3,-5.21 0,-1.23 -0.18,-3.47 -0.63,-6.66 0.45,-2.18 0.91,-4.3 1.41,-6.27 0.56,-1.96 0.95,-4.64 1.23,-8 l -46.95,1.3 31.95,-33.92 c -4.3,-2.4 -8.4,-5.2 -12.25,-8.33 -3.92,-3.14 -6.99,-5.61 -9.29,-7.39 l -22.17,41.18 -14.65,-44.37 c -5.65,2.85 -9.51,4.76 -11.59,5.71 -4.7,2.29 -9.05,4.03 -12.96,5.25 l 23.54,39.45 -45.04,-9.29 -0.89,14.38 -1.07,11.7 45.59,-1.06 -31.21,33.36 c 0.85,0.5 4.76,3.24 11.75,8.1 4.26,2.86 7.6,5.82 10.02,8.95 l 23.95,-42.75" /><path
         id="path76"
         style="fill:#231f20;fill-opacity:1;fill-rule:evenodd;stroke:none"
         d="m 287.609,2186.81 230.426,16.17 8.899,-127.64 -14.551,1 -14.215,-3.02 c 0.395,10.59 0.559,22.5 0.5,35.7 -0.047,13.27 -0.559,27.15 -1.57,41.64 l -71.672,-5.04 2.508,-35.81 c 1.238,-17.4 3.152,-30.61 5.832,-39.61 l -15.227,0.95 -14.266,-3.04 c 0.786,11.26 1.012,21.95 0.606,32.03 -0.379,10.06 -1.211,24.66 -2.566,43.92 l -111.168,-7.84 c 0.605,10.86 0.652,19.47 0.214,25.97 -0.441,6.03 -1.679,14.26 -3.75,24.62" /><path
         id="path78"
         style="fill:#231f20;fill-opacity:1;fill-rule:evenodd;stroke:none"
         d="m 302.277,2057.16 245.414,-58.03 0.965,-12.42 3.078,-12.76 -215.824,-128.97 -3.476,30.37 -5.59,26.64 c 21.496,10.18 43.207,21.55 64.965,34.08 l -12.254,77.61 c -11.016,2.28 -19.688,4.03 -25.957,5.04 -21.043,4.13 -36.543,6.71 -46.442,7.6 l -1.285,16.79 z m 109.231,-110.18 72.23,42.02 -81.914,19.03 z" /><path
         id="path80"
         style="fill:#231f20;fill-opacity:1;fill-rule:evenodd;stroke:none"
         d="m 569.281,1883.69 5.094,-25.08 8.898,-23.66 -101.058,-28.99 c 16.394,-7.61 37.105,-16.94 62.168,-27.92 6.652,-2.96 27.574,-11.86 62.836,-26.68 l 2.793,-17.02 7.222,-17.84 -2.629,-0.73 c -24.566,12.75 -42.636,22.1 -54.16,28.14 -20.261,10.46 -40.066,20.25 -59.422,29.39 l -99.781,-122.21 -5.187,-1.52 c -1.297,9.45 -2.977,17.91 -5.153,25.47 -1.961,6.87 -4.925,14.66 -8.777,23.32 l 82.02,102.46 -102.957,-29.55 -4.805,24.12 -9.184,24.62 222.082,63.68" /><path
         id="path82"
         style="fill:#231f20;fill-opacity:1;fill-rule:evenodd;stroke:none"
         d="m 487.094,1650.36 130.652,58.13 c 2.461,-8.89 5.27,-16.79 8.242,-23.5 3.192,-7.16 7.27,-14.65 12.254,-22.49 l -118.078,-52.54 c -11.469,-5.1 -21.379,-10.57 -29.656,-16.34 -8.34,-5.76 -14.324,-11.47 -17.965,-17.01 -4.637,-7.22 -7.539,-14.49 -8.672,-21.82 -1.664,-10.57 0.063,-21.6 5.164,-33.02 4.973,-11.24 10.516,-19.47 16.442,-24.67 5.984,-5.14 14.32,-8.95 24.898,-11.3 10.633,-2.42 23.945,-1.24 40.004,3.47 9.516,2.74 21.152,7.16 34.867,13.27 l 103.625,46.15 4.082,-12.47 6.828,-12.04 -111.621,-49.68 c -23.504,-10.47 -42.312,-16.39 -56.41,-17.74 -11.242,-1.12 -21.602,0.39 -31,4.53 -12.48,5.48 -23.16,12.48 -32,21.05 -8.852,8.55 -16.844,20.92 -24.008,37.09 -7.492,16.72 -11.75,32.11 -12.808,46.11 -1.059,13.92 0.605,26.96 5.031,38.99 4.258,9.68 10.906,18.57 19.973,26.53 9.062,7.94 19.14,14.38 30.156,19.3" /><path
         id="path84"
         style="fill:#231f20;fill-opacity:1;fill-rule:evenodd;stroke:none"
         d="m 716.281,1494.86 10.289,-22.71 14.11,-21.33 -179.117,-99.25 c 4.636,-8.45 10.347,-18.02 17.058,-28.76 6.719,-10.75 14.953,-22.99 24.625,-36.83 l -14.492,-4.97 -11.074,-8.45 -61.668,111.3 200.269,111" /><path
         id="path86"
         style="fill:#231f20;fill-opacity:1;fill-rule:evenodd;stroke:none"
         d="m 605.148,1226.91 175.094,109.39 c -5.933,9.45 -12.086,18.39 -18.402,26.85 -6.328,8.45 -12.715,16.33 -19.152,23.62 l 11.648,6.1 12.871,9.23 91.598,-146.61 -14.442,-6.66 -10.078,-8.61 c -3.625,7.49 -7.601,15.89 -11.965,25.17 -4.308,9.29 -9.578,18.87 -15.773,28.77 l -175.086,-109.45 -12.762,22.94 -13.551,19.26" /><path
         id="path88"
         style="fill:#231f20;fill-opacity:1;fill-rule:evenodd;stroke:none"
         d="m 659.559,1144.31 243.902,63.97 6.652,-10.53 8.672,-9.85 -129.976,-215.197 -17.286,25.184 -17.46,20.913 c 14.214,19.09 28.039,39.29 41.406,60.61 l -47.285,62.73 c -10.86,-3.1 -19.246,-5.66 -25.289,-7.73 -20.547,-6.21 -35.426,-11.25 -44.586,-15.05 l -9.02,14.21 z m 148.164,-46 43.98,70.96 -81.191,-21.66 z" /><path
         id="path90"
         style="fill:#231f20;fill-opacity:1;fill-rule:evenodd;stroke:none"
         d="m 868.262,895.152 160.478,166.188 60.88,-58.75 c 11.74,-11.363 19.29,-20.477 22.77,-27.426 3.41,-6.875 5.26,-15.391 5.42,-25.504 0.28,-6.16 -0.99,-12.43 -3.86,-18.699 -2.79,-6.316 -6.54,-11.922 -11.18,-16.727 -12.92,-13.371 -27.65,-19.699 -44.09,-19.082 -12.04,0.442 -24.07,4.262 -36.04,11.481 -5.04,-21.281 -9.96,-43.93 -14.77,-67.938 -4.36,-21.875 -8.729,-43.812 -13.097,-65.734 -7.265,8.883 -14.035,16.379 -20.316,22.422 -6.258,6.101 -14.156,12.765 -23.66,20.031 5.195,20.199 9.183,35.203 11.859,45.051 8.446,32.621 14.774,57.805 18.856,75.586 l -1.68,1.617 -75.086,-77.773 c -6.328,8.007 -11.859,14.335 -16.738,18.972 -4.637,4.535 -11.242,9.957 -19.746,16.285 z m 121.648,52.938 5.258,-5.602 c 10.122,-9.789 20.192,-14.836 30.152,-15.109 11.7,-0.438 23.57,5.543 35.54,17.965 12.31,12.75 17.57,24.289 15.83,34.699 -1.23,7.434 -6.48,15.656 -15.83,24.657 l -8.45,8.13 -62.5,-64.74" /><path
         id="path92"
         style="fill:#231f20;fill-opacity:1;fill-rule:evenodd;stroke:none"
         d="m 1167.96,931.34 18.06,-17.223 20.54,-14.051 -145.37,-179.496 c -6.26,6.828 -12.65,12.813 -19.08,18.024 -5.53,4.519 -12.03,8.945 -19.52,13.25 l 145.37,179.496" /><path
         id="path94"
         style="fill:#231f20;fill-opacity:1;fill-rule:evenodd;stroke:none"
         d="m 1090.85,701.895 214.53,132.437 9.51,-8.113 11.13,-6.891 -61.38,-243.793 -23.88,19.035 -22.78,14.926 c 7.93,22.391 15.21,45.719 21.81,70.008 l -63.56,46.168 c -9.45,-6.102 -16.79,-11.027 -21.93,-14.785 -17.8,-11.907 -30.56,-21.032 -38.16,-27.348 l -12.82,10.895 z m 155.11,-0.739 21.36,80.797 -71.39,-44.492 z" /><path
         id="path96"
         style="fill:#231f20;fill-opacity:1;fill-rule:evenodd;stroke:none"
         d="m 1297.26,561.211 107.49,202.16 100.77,-53.601 c 24.9,-13.207 41.63,-31.836 50.15,-55.899 9.39,-27.09 6.09,-55.734 -10.02,-85.949 -17.02,-32.059 -39.96,-52.77 -68.83,-62.274 -30.77,-10.246 -64.18,-5.82 -100.15,13.321 z m 53.17,-5.816 27.3,-14.489 c 19.53,-10.41 37.42,-13.715 53.65,-9.91 24.06,5.699 45.45,26.125 64.13,61.266 15.17,28.488 19.26,52.875 12.37,73.301 -5.59,16.621 -18.36,30.277 -38.33,40.898 l -30.21,16.07 -88.91,-167.136" /><path
         id="path98"
         style="fill:#231f20;fill-opacity:1;fill-rule:evenodd;stroke:none"
         d="m 1526.72,447.465 85.78,212.281 119.24,-48.168 -8.16,-13.047 -3.3,-13.48 c -8.05,4.484 -17.46,9.351 -28.1,14.609 -10.68,5.258 -21.21,10.016 -31.55,14.203 l -10.3,4.153 -26.92,-66.641 40.46,-16.344 c 3.92,-1.633 9.07,-3.355 15.38,-5.308 6.39,-1.961 11.59,-3.258 15.62,-3.926 l -7.78,-13.93 -3.25,-13.488 c -3.4,2.355 -8.77,5.316 -16.1,9.016 -7.34,3.687 -14.11,6.757 -20.31,9.281 l -32.69,13.203 -31.94,-79 c 12.48,-5.031 25,-9.625 37.7,-13.766 12.66,-4.199 24.73,-7.886 36.26,-11.086 l -8.39,-13.597 -3.08,-12.918 -118.57,47.953" /><path
         id="path100"
         style="fill:#231f20;fill-opacity:1;fill-rule:evenodd;stroke:none"
         d="m 1686.81,387.316 67.32,220.231 32.12,-9.852 c 6.37,-13.593 16.51,-34.746 30.48,-63.332 9.91,-20.379 19.93,-40.742 29.93,-61.097 10.02,-20.438 20.67,-43.207 31.97,-68.438 l 45.99,150.625 12.14,-5.148 13.54,-2.75 -67.48,-220.848 -26.8,8.898 c -10.41,21.879 -20.59,43.481 -30.56,64.797 -10.01,21.332 -20.36,43.09 -31.1,65.309 -13.38,27.527 -24.85,50.523 -34.36,69.152 l -47.66,-156.062 -13.89,6.328 -11.64,2.187" /><path
         id="path102"
         style="fill:#231f20;fill-opacity:1;fill-rule:evenodd;stroke:none"
         d="m 1981.18,546.438 24.12,-6.258 24.84,-2.356 -40.13,-227.461 c -8.84,2.914 -17.28,5.09 -25.46,6.496 -7.04,1.286 -14.88,1.961 -23.5,2.129 l 40.13,227.45" /><path
         id="path104"
         style="fill:#231f20;fill-opacity:1;fill-rule:evenodd;stroke:none"
         d="m 2023.65,301.074 115.67,224.106 12.23,-2.082 13.16,-0.157 72.97,-240.617 -30.33,4.035 -27.2,1.008 c -4.7,23.328 -10.51,47.051 -17.34,71.281 l -78.27,6.829 c -4.94,-10.122 -8.68,-18.118 -11.2,-23.946 -9.13,-19.414 -15.33,-33.797 -18.57,-43.207 l -16.63,2.809 z m 133.28,79.344 -23.28,80.121 -38.22,-74.754 z" /><path
         id="path106"
         style="fill:#231f20;fill-opacity:1;fill-rule:evenodd;stroke:none"
         d="m 2328.71,278.363 74.97,240.774 12.43,0.105 12.98,2.129 113.65,-224.258 -30.56,-1.347 -26.97,-3.688 c -8.67,22.152 -18.52,44.527 -29.49,67.141 l -78.21,-6.828 c -3.14,-10.801 -5.38,-19.368 -6.9,-25.516 -5.59,-20.711 -9.18,-35.984 -10.79,-45.777 l -16.85,-0.106 z m 117.5,101.282 -36.88,74.921 -24.66,-80.296 z" /><path
         id="path108"
         style="fill:#231f20;fill-opacity:1;fill-rule:evenodd;stroke:none"
         d="m 2619.39,537.051 24.83,2.285 24.13,6.316 40.11,-227.449 c -9.29,-0.273 -17.96,-1.168 -26.13,-2.57 -7.04,-1.285 -14.66,-3.305 -22.83,-6.09 l -40.11,227.508" /><path
         id="path110"
         style="fill:#231f20;fill-opacity:1;fill-rule:evenodd;stroke:none"
         d="m 2767.61,326.543 -67.31,220.238 32.12,9.852 c 12.86,-7.781 33.12,-19.594 60.71,-35.535 19.58,-11.313 39.23,-22.602 58.98,-33.903 19.68,-11.312 41.28,-24.23 64.68,-38.84 l -46,150.567 12.92,2.594 12.75,5.246 67.49,-220.848 -27.12,-7.613 c -20.88,12.359 -41.41,24.566 -61.62,36.652 -20.2,12.086 -40.96,24.34 -62.28,36.77 -26.47,15.32 -48.84,28.027 -67.14,38.09 l 47.67,-155.993 -14.99,-2.519 -10.86,-4.758" /><path
         id="path112"
         style="fill:#231f20;fill-opacity:1;fill-rule:evenodd;stroke:none"
         d="m 3016.05,401.402 -86.5,214.137 118.56,47.953 3.57,-14.156 7.28,-12.645 c -10.18,-2.855 -21.54,-6.375 -34.13,-10.515 -12.58,-4.094 -25.62,-8.91 -39.11,-14.336 l 26.92,-66.641 33.29,13.446 c 16.23,6.539 28.2,12.464 35.92,17.781 l 3.81,-14.774 7.27,-12.586 c -10.96,-2.746 -21.16,-5.875 -30.66,-9.351 -9.46,-3.473 -23.11,-8.777 -40.97,-16 l 41.74,-103.352 c -10.45,-2.734 -18.67,-5.363 -24.67,-7.765 -5.59,-2.297 -13.04,-5.996 -22.32,-11.196" /><path
         id="path114"
         style="fill:#231f20;fill-opacity:1;fill-rule:evenodd;stroke:none"
         d="m 3105.34,559.297 c -14.71,27.656 -18.74,55.957 -12.08,84.828 8.05,34.977 31.11,62.563 69.28,82.82 36.92,19.7 71.12,24.293 102.5,13.883 28.37,-9.515 50.59,-29.383 66.64,-59.609 17.58,-33 20.32,-65.285 8.29,-96.785 -11.65,-30.004 -34.36,-53.996 -68.27,-72.02 -15.38,-8.16 -31.44,-13.535 -48.29,-16.164 -22.39,-3.535 -42.64,-1.512 -60.82,6.043 -23.05,9.562 -41.4,27.191 -55.05,52.875 z m 173.58,101.066 c -13.04,24.508 -29.26,41.52 -48.62,50.965 -19.37,9.457 -38.28,9.289 -56.86,-0.609 -22.71,-12.086 -34.74,-30.727 -35.98,-56.004 -1.16,-22.664 6.05,-48.633 21.61,-77.848 13.14,-24.719 29.7,-41.004 49.63,-48.953 18.57,-7.328 36.48,-6.434 53.65,2.75 24.68,13.098 36.54,34.746 35.48,64.844 -0.72,20.926 -7.05,42.527 -18.91,64.855" /><path
         id="path116"
         style="fill:#231f20;fill-opacity:1;fill-rule:evenodd;stroke:none"
         d="m 3415.84,597.805 -135.74,186.836 68.43,49.738 c 13.21,9.562 23.5,15.5 30.88,17.687 7.45,2.176 16.13,2.465 26.15,0.895 6.09,-0.773 12.02,-3.129 17.73,-6.996 5.71,-3.856 10.57,-8.508 14.49,-13.93 10.92,-15.051 14.59,-30.609 11.07,-46.726 -2.45,-11.754 -8.33,-22.938 -17.51,-33.512 20.09,-8.625 41.52,-17.402 64.3,-26.301 20.88,-8.113 41.68,-16.168 62.56,-24.281 -10.08,-5.664 -18.58,-11.027 -25.68,-16.18 -7.06,-5.09 -15,-11.691 -23.84,-19.746 -18.97,8.613 -33.07,15.047 -42.3,19.414 -30.61,13.988 -54.33,24.567 -71.18,31.727 l -1.9,-1.391 63.57,-87.461 c -8.96,-4.816 -16.13,-9.242 -21.55,-13.156 -5.27,-3.805 -11.75,-9.348 -19.48,-16.617 z m -30.99,128.914 6.42,4.261 c 11.37,8.29 18.09,17.344 20.1,27.075 2.46,11.465 -1.35,24.172 -11.47,38.113 -10.41,14.262 -20.88,21.484 -31.44,21.543 -7.5,0.047 -16.51,-3.699 -26.98,-11.301 l -9.52,-6.945 52.89,-72.746" /><path
         id="path118"
         style="fill:#231f20;fill-opacity:1;fill-rule:evenodd;stroke:none"
         d="m 3575.71,708.211 c -17.41,28.039 -38.83,61.273 -64.41,99.699 -19.41,29.215 -40.79,61 -64.17,95.356 l 11.52,7.722 8.9,10.696 c 18.31,-7.961 36.53,-15.621 54.68,-23.055 9,-3.641 27.07,-10.875 54.28,-21.664 13.64,-5.426 31.71,-12.477 54.26,-21.152 -7.44,27.98 -14.83,55.96 -22.27,83.925 -8.23,30.563 -16.5,59.328 -24.9,86.402 l 12.03,8.16 8.9,10.7 c 33.45,-30.1 52.76,-47.34 57.91,-51.754 14.55,-12.824 34.02,-29.609 58.47,-50.367 16.97,-14.547 36.94,-31.164 59.88,-49.961 -7.73,-5.152 -15,-10.813 -21.78,-16.953 -6.65,-5.996 -13.02,-12.598 -19.14,-19.926 -15.26,16.953 -33.56,34.809 -54.82,53.438 -21.32,18.582 -41.58,36.425 -60.83,53.449 1.91,-6.438 7.17,-25.031 15.91,-55.746 6.93,-24.446 12.35,-43.192 16.28,-56.231 5.93,-19.972 11.29,-37.59 16,-52.937 l -4.98,-4.473 -4.26,-3.805 c -28.71,11.813 -49.03,20.137 -60.93,25.075 -57.74,23.269 -89.42,36.031 -95.02,38.211 16.07,-23.782 32.51,-47.215 49.47,-70.235 16.96,-22.984 31.11,-40.777 42.48,-53.426 l -13.05,-9.074 -10.41,-12.074" /><path
         id="path120"
         style="fill:#231f20;fill-opacity:1;fill-rule:evenodd;stroke:none"
         d="m 3791.46,903.102 -113.3,225.278 8.94,8.73 7.77,10.57 237.6,-82.43 -21.05,-22.21 -16.84,-21.38 c -21.66,9.92 -44.26,19.2 -67.87,27.87 l -51.54,-59.303 c 5.27,-9.969 9.56,-17.629 12.76,-23.114 10.35,-18.808 18.36,-32.285 24.01,-40.461 l -12.03,-11.812 z m 14.21,154.428 -78.56,28.31 38.11,-74.87 z" /><path
         id="path122"
         style="fill:#231f20;fill-opacity:1;fill-rule:evenodd;stroke:none"
         d="m 3960.6,1107.61 -169.15,118.45 c -6.42,-9.17 -12.24,-18.29 -17.56,-27.47 -5.31,-9.12 -10.07,-18.08 -14.26,-26.86 l -10.19,8.34 -13.48,8.22 99.14,141.64 11.76,-10.7 11.93,-5.87 c -5.5,-6.26 -11.71,-13.21 -18.53,-20.87 -6.83,-7.63 -13.6,-16.23 -20.31,-25.74 l 169.14,-118.45 -16.12,-20.65 -12.37,-20.04" /><path
         id="path124"
         style="fill:#231f20;fill-opacity:1;fill-rule:evenodd;stroke:none"
         d="m 3848.27,1350.04 14.88,20.05 11.47,22.09 195.9,-122.36 c -6.04,-7.12 -11.24,-14.1 -15.62,-21.16 -3.81,-6.04 -7.38,-13.03 -10.74,-20.98 l -195.89,122.36" /><path
         id="path126"
         style="fill:#231f20;fill-opacity:1;fill-rule:evenodd;stroke:none"
         d="m 3894.14,1422.07 13.37,21.83 9.63,23.33 93.61,-47.73 c -6.77,16.79 -15.55,37.72 -26.34,62.84 -2.86,6.7 -12.09,27.52 -27.77,62.39 l 9.57,14.32 6.88,17.97 2.42,-1.23 c 9.28,-26.09 16.1,-45.27 20.41,-57.53 7.67,-21.44 15.45,-42.13 23.4,-62 l 156.34,21.32 4.74,-2.47 c -5.42,-7.7 -9.95,-15.1 -13.48,-22.1 -3.24,-6.37 -6.43,-14.05 -9.51,-23.05 l -129.93,-18.96 95.47,-48.63 -12.88,-20.92 -10.12,-24.24 -205.81,104.86" /><path
         id="path128"
         style="fill:#231f20;fill-opacity:1;fill-rule:evenodd;stroke:none"
         d="m 4127.43,1601.47 c -15.27,-2.31 -31.44,-4.48 -48.51,-6.55 -8.84,-1.18 -25.96,-3.24 -51.31,-6.21 -21.6,-2.52 -38.61,-4.64 -50.98,-6.33 5.04,9.29 9.3,18.58 12.82,27.75 3.8,9.85 6.71,19.31 8.73,28.32 37.26,3.47 74.53,7.05 111.63,10.74 -5.49,8.85 -14.67,20.15 -27.58,33.97 -27.09,27.42 -43.15,43.75 -48.08,49.01 3.64,5.82 6.09,10.29 7.27,13.44 1.35,3.53 2.86,9.28 4.53,17.28 15.79,-19.48 31.5,-38.77 47.14,-58.02 16.87,-20.37 32.1,-38.17 45.64,-53.44 l 97.54,-37.43 -11.31,-23.73 -6.89,-23.61 -90.64,34.81" /><path
         id="path130"
         style="fill:#231f20;fill-opacity:1;fill-rule:evenodd;stroke:none"
         d="m 4069.46,1838.54 36.53,172.12 5.93,-1.29 c 19.81,-19.74 40.24,-39.57 61.17,-59.31 16.83,-15.73 34.8,-32.23 53.99,-49.58 12.13,-10.8 29.37,-26.13 51.7,-45.99 l 3.25,-0.73 c 1.78,8.34 4.81,25.17 9.06,50.64 4.26,25.4 8.23,46.61 11.86,63.68 l 12.36,-4.65 14.67,-0.39 -39.4,-185.54 -5.92,1.22 c -14.55,14.55 -33.18,32.86 -56.02,54.84 -20.7,19.92 -39.04,37.5 -55.05,52.55 -18.53,17.4 -36.49,34.07 -53.95,49.9 l -4.25,0.89 c -3.64,-17.04 -6.54,-32.33 -8.73,-45.87 -5.87,-36.26 -9.05,-55.73 -9.61,-58.36 l -13.21,4.19 c -3.47,0.73 -6.27,1.19 -8.29,1.23 -2.07,0.11 -4.08,0.29 -6.09,0.45 z m -44.71,159.53 49.35,-52.03 -6.44,-30.22 -66.53,-28.76 4.14,19.35 40.58,29.49 -24.96,44.09 3.86,18.08" /><path
         id="path132"
         style="fill:#231f20;fill-opacity:1;fill-rule:evenodd;stroke:none"
         d="m 4251.25,2007.8 -141.95,17.47 c 2.46,8.88 4.15,17.05 5.03,24.39 0.97,7.78 1.3,16.29 1.13,25.57 l 128.25,-15.78 c 12.42,-1.52 23.72,-1.96 33.86,-1.28 10.12,0.67 18.11,2.46 24.16,5.31 7.67,3.8 13.88,8.56 18.64,14.33 6.88,8.16 11.08,18.46 12.58,30.94 1.51,12.19 1.01,22.04 -1.45,29.6 -2.47,7.5 -7.61,15.04 -15.45,22.55 -7.89,7.49 -19.91,13.36 -36.09,17.62 -9.61,2.52 -21.82,4.7 -36.7,6.5 l -112.64,13.87 2.91,12.82 0.33,13.81 121.32,-14.93 c 25.52,-3.14 44.7,-7.73 57.47,-13.84 10.24,-4.8 18.35,-11.46 24.28,-19.85 7.89,-11.15 13.43,-22.61 16.56,-34.52 3.2,-11.86 3.7,-26.59 1.52,-44.15 -2.25,-18.19 -6.49,-33.58 -12.78,-46.1 -6.25,-12.54 -14.37,-22.83 -24.38,-30.84 -8.67,-6.16 -18.92,-10.3 -30.78,-12.48 -11.86,-2.13 -23.84,-2.46 -35.82,-1.01" /></g></g></svg>